<svg xmlns="http://www.w3.org/2000/svg" width="564" height="493" style="shape-rendering:geometricPrecision;text-rendering:geometricPrecision;image-rendering:optimizeQuality;fill-rule:evenodd;clip-rule:evenodd"><path fill="#202120" d="M348.5 7.5q2 1 0 0" style="opacity:.008"/><path fill="#565656" d="M166.5 69.5q1.684-1.886 2 1z" style="opacity:.031"/><path fill="#f7f7f7" d="m166.5 69.5 2 1q37.231 55.977 56 121-.136 3.978 2 7 13.132 42.874 16 88-.356 1.937 1 3a381 381 0 0 1 3 17q-.136 3.978 2 7a341 341 0 0 0 14 39q-.11 2.29 2 3 12.008 19.767 31 33.5 4.197 2.871 9 3-8.562-41.819 25-68a307.5 307.5 0 0 1 67-31.5q.814-.09 1-1a16.9 16.9 0 0 0-8-1q-57.009-.75-114-2l-32-2q2.156-17.612 8-34 2.11-.71 2-3 40.454-36.495 88-63.5a1104 1104 0 0 1 40-19.5 175 175 0 0 1-12.5-29q-5.996-33.53 20.5-54.5 16.895-6.088 32 4a243 243 0 0 1 42 36.5q.357 2.856 3 4 2.5 1.5 4 4 .5 3.5 4 4a64 64 0 0 1 4 6.5 244 244 0 0 1-10.5 31.5q-3.288 2.603-7.5 3.5a628 628 0 0 0-53 15.5 89.6 89.6 0 0 1-3 15h-3q-1.84-6.185-6-11a52314 52314 0 0 0-34 15h-5v3a349 349 0 0 0-56 35.5 1592 1592 0 0 0 244-.5l1 2.5a359 359 0 0 1-15 34 488.4 488.4 0 0 0-105 28 112267 112267 0 0 1-49 19.5q-2.82-.406-4 2a373 373 0 0 0-41 21.5 74.4 74.4 0 0 0-15.5 13.5q-2.06 3.293-1 7 7.671 15.171 22.5 23.5 31.035 17.178 66 23a2631 2631 0 0 1 4 40q-1.567 2.289-4.5 2.5-40.308-3.392-78.5-16.5-12.753-5.124-24-12.5-.71-2.11-3-2-1.488.258-2-1-1.144-2.643-4-3-23.83-16.329-37-42 .322-2.518-2-3-20.208-45.324-25-95-.09-.814-1-1a16.9 16.9 0 0 0-1 8q-.417 14.669-6.5 28-37.651 56.936-91.5 99.5-88.581 60.472-93-47-.174-26.688 6-52.5 2.136-3.022 2-7a186 186 0 0 1 8-29q2.136-3.022 2-7a156.2 156.2 0 0 1 12.5-31q1.517-1.255 3.5-1a149.5 149.5 0 0 1-10 40q-2.495 2.908-2 7a268.4 268.4 0 0 0-10 63.5q-2.675 24.12 16 39 16.188 8.44 33 1a154 154 0 0 0 21-10.5q2.29.11 3-2 12.942-9.983 26-20 3.373-.87 5-4a6.55 6.55 0 0 1 3-3q5.5-2.5 8-8l2-1q3.621-2.116 5-6l21-22q2.11-.71 2-3a279 279 0 0 0 27.5-35 11.53 11.53 0 0 0 1.5-5.5 426 426 0 0 0-15.5-59.5 1136 1136 0 0 0-37.5-97q.322-2.519-2-3l-4-10q.406-2.82-2-4-.936-.626-1-2 2.897-18.943 8-37m245 86q-4.346.943-8 3a43 43 0 0 0-8.5 3 132 132 0 0 0-7.5-15q.11-2.29-2-3-.24-2.48-2-4 .11-2.29-2-3a54 54 0 0 0-4-9q2.136-3.327 6-4.5 14.153-1.12 26 7a184.5 184.5 0 0 1 21 18.5 428 428 0 0 1-19 7m-136 133q56.991 1.25 114 2l7 2a307.5 307.5 0 0 0-67 31.5q-33.562 26.181-25 68-4.803-.129-9-3-18.992-13.733-31-33.5.11-2.29-2-3a341 341 0 0 1-14-39q.136-3.978-2-7a381 381 0 0 0-3-17q15.73-1.491 32-1" style="opacity:.999"/><path fill="#202120" d="M346.5 92.5q2 1 0 0M262.5 93.5q2 1 0 0" style="opacity:.008"/><path fill="#7c7c7c" d="M159.5 108.5q2.406 1.18 2 4-1.76-1.52-2-4" style="opacity:.529"/><path fill="#828282" d="M165.5 122.5q2.322.481 2 3-1.352-1.185-2-3" style="opacity:.741"/><path fill="#6c6c6c" d="M463.5 123.5q2.643 1.144 3 4-2.643-1.144-3-4" style="opacity:.553"/><path fill="#747474" d="M470.5 131.5q2.5 1.5 4 4-3.5-.5-4-4" style="opacity:.671"/><path fill="#828282" d="M381.5 136.5q2.11.71 2 3-2.11-.71-2-3" style="opacity:.463"/><path fill="#747474" d="M385.5 143.5q2.11.71 2 3-2.11-.71-2-3" style="opacity:.369"/><path fill="#a1a1a1" d="M411.5 155.5q-3.176 3.233-8 3 3.654-2.057 8-3" style="opacity:.827"/><path fill="#a1a1a1" d="M224.5 191.5q2.136 3.022 2 7-2.136-3.022-2-7" style="opacity:.82"/><path fill="#858585" d="M401.5 207.5h3q-1.5 4-3 0" style="opacity:.765"/><path fill="#9e9e9e" d="M361.5 211.5q-2.198 1.856-5 3v-3z" style="opacity:1"/><path fill="#818181" d="M253.5 249.5q.11 2.29-2 3-.11-2.29 2-3" style="opacity:.447"/><path fill="#959595" d="M52.5 283.5q.136 3.978-2 7-.136-3.978 2-7" style="opacity:.749"/><path fill="#515151" d="M242.5 286.5h1l32 2q-16.27-.491-32 1-1.356-1.063-1-3" style="opacity:.067"/><path fill="#575757" d="M389.5 290.5q4.12-.47 8 1-.186.91-1 1z" style="opacity:.235"/><path fill="#7a7a7a" d="m227.5 291.5-2 7a16.9 16.9 0 0 1 1-8q.91.186 1 1" style="opacity:.537"/><path fill="#848484" d="M58.5 291.5q-.332 3.851-2 7-.495-4.092 2-7" style="opacity:.624"/><path fill="#999" d="M246.5 306.5q2.136 3.022 2 7-2.136-3.022-2-7" style="opacity:.616"/><path fill="#777" d="M191.5 322.5q.11 2.29-2 3-.11-2.29 2-3" style="opacity:.584"/><path fill="#a0a0a0" d="M42.5 319.5q.136 3.978-2 7-.136-3.978 2-7" style="opacity:.671"/><path fill="#5c5c5c" d="M376.5 333.5q-1.52 1.76-4 2 1.18-2.406 4-2" style="opacity:.031"/><path fill="#828282" d="M168.5 347.5q-1.379 3.884-5 6 1.379-3.884 5-6" style="opacity:.608"/><path fill="#7d7d7d" d="M262.5 352.5q2.11.71 2 3-2.11-.71-2-3" style="opacity:.447"/><path fill="#9b9b9b" d="M161.5 354.5q-2.5 5.5-8 8 3.5-4.5 8-8" style="opacity:.718"/><path fill="#929292" d="M150.5 365.5q-1.627 3.13-5 4 1.627-3.13 5-4" style="opacity:.694"/><path fill="#2d2e2d" d="M424.5 374.5q2 1 0 0" style="opacity:.055"/><path fill="#818181" d="M252.5 386.5q2.322.482 2 3-1.352-1.185-2-3" style="opacity:.765"/><path fill="#727272" d="M119.5 389.5q-.71 2.11-3 2 .71-2.11 3-2" style="opacity:.545"/><path fill="#7c7c7c" d="M291.5 431.5q2.856.357 4 3-2.856-.357-4-3" style="opacity:.678"/><path fill="#818181" d="M297.5 435.5q2.29-.11 3 2-2.29.11-3-2" style="opacity:.455"/></svg>