<svg width="182" height="127" viewBox="0 0 182 127" fill="none" xmlns="http://www.w3.org/2000/svg">
<path d="M72.4609 81.9336L72.2656 82.6172C71.1589 85.9375 66.9271 91.4714 59.5703 99.2188C42.7734 116.797 28.418 125.586 16.5039 125.586C7.77995 125.586 2.50651 121.257 0.683594 112.598C0.227865 110.449 0 108.203 0 105.859C0.0651042 98.6328 1.79036 89.9414 5.17578 79.7852C5.4362 79.0039 5.82682 78.5156 6.34766 78.3203C6.80339 78.125 7.0638 78.3203 7.12891 78.9062C7.12891 79.2969 6.64062 81.3477 5.66406 85.0586C4.42708 89.8112 3.84115 94.401 3.90625 98.8281C4.03646 105.794 6.83594 110.286 12.3047 112.305C14.1927 112.565 15.5273 112.663 16.3086 112.598C30.2409 112.598 47.3633 101.4 67.6758 79.0039C69.4987 76.9857 71.1914 75.0326 72.7539 73.1445C71.3867 57.7148 65.5924 38.2812 55.3711 14.8438L54.1992 12.6953L58.5938 0C58.6589 0.260417 58.8216 0.553385 59.082 0.878906C66.6992 12.3372 72.2331 26.0091 75.6836 41.8945C76.9206 47.4935 78.0273 53.5482 79.0039 60.0586C80.1107 67.6758 81.3802 73.6328 82.8125 77.9297C86.5234 89.5833 93.0664 98.5026 102.441 104.688C102.441 104.557 102.214 103.776 101.758 102.344C101.367 100.977 101.172 99.5768 101.172 98.1445C101.172 92.5456 103.613 87.7279 108.496 83.6914C113.444 79.6549 123.34 74.7396 138.184 68.9453C105.046 70.1172 86.7839 70.8333 83.3984 71.0938L83.0078 72.2656L86.4258 59.9609C86.556 59.4401 86.7513 58.9844 87.0117 58.5938C91.1133 52.6693 99.8047 45.931 113.086 38.3789C113.542 38.0534 118.49 35.319 127.93 30.1758C124.349 26.3346 122.559 21.9076 122.559 16.8945C122.559 11.6862 124.382 7.97526 128.027 5.76172C129.655 4.78516 131.641 4.26432 133.984 4.19922C141.146 4.19922 147.721 6.9987 153.711 12.5977C156.836 15.5273 158.398 18.0013 158.398 20.0195C158.333 23.2747 157.422 26.888 155.664 30.8594L155.469 30.6641V31.0547C151.562 31.3802 146.387 32.9427 139.941 35.7422C141.113 39.1927 141.699 42.6107 141.699 45.9961V48.3398C140.918 45.6706 138.672 42.2201 134.961 37.9883C122.461 43.8477 110.97 50.4883 100.488 57.9102C107.389 57.6497 118.945 57.4219 135.156 57.2266C151.432 56.9661 166.862 56.5104 181.445 55.8594L175.098 68.9453H171.875C171.289 69.1406 166.471 70.638 157.422 73.4375C148.438 76.1719 138.216 79.9154 126.758 84.668C115.299 89.3555 107.91 94.1406 104.59 99.0234C108.496 104.688 115.723 109.342 126.27 112.988C127.962 113.574 129.525 114.062 130.957 114.453H131.152L130.957 123.73V126.074L131.152 126.27C108.822 124.772 92.8711 114.681 83.3008 95.9961C80.1107 89.8112 77.3763 82.194 75.0977 73.1445C74.4466 75.4232 73.5677 78.3529 72.4609 81.9336ZM126.074 17.0898C127.246 19.3034 129.948 22.6237 134.18 27.0508C138.021 25.293 142.546 23.5677 147.754 21.875C143.978 19.2057 138.9 17.2526 132.52 16.0156C131.868 15.8854 131.217 15.8203 130.566 15.8203C128.939 15.8203 127.441 16.2435 126.074 17.0898Z" fill="white"/>
</svg>
