<svg width="735" height="595" viewBox="0 0 735 595" fill="none" xmlns="http://www.w3.org/2000/svg">
<g filter="url(#filter0_d_91_8)">
<path d="M305.654 348.307L305.079 350.445C301.815 360.832 289.338 378.143 267.646 402.379C218.119 457.367 175.792 484.862 140.663 484.862C114.94 484.862 99.3906 471.318 94.0156 444.231C92.6719 437.51 92 430.484 92 423.152C92.192 400.546 97.279 373.357 107.261 341.586C108.029 339.142 109.181 337.615 110.716 337.004C112.06 336.393 112.828 337.004 113.02 338.837C113.02 340.059 111.58 346.474 108.701 358.083C105.053 372.95 103.326 387.308 103.518 401.157C103.902 422.949 112.156 437.001 128.281 443.315C133.848 444.129 137.783 444.435 140.087 444.231C181.167 444.231 231.653 409.202 291.545 339.142C296.92 332.829 301.911 326.719 306.518 320.813C302.487 272.545 285.402 211.753 255.264 138.435L251.809 131.714L264.766 92C264.958 92.8146 265.438 93.7311 266.206 94.7494C288.666 130.594 304.983 173.362 315.157 223.056C318.804 240.571 322.067 259.511 324.947 279.877C328.21 303.705 331.953 322.34 336.177 335.782C347.118 372.237 366.411 400.139 394.053 419.486C394.053 419.079 393.381 416.635 392.038 412.155C390.886 407.878 390.31 403.499 390.31 399.019C390.31 381.504 397.509 366.433 411.906 353.806C426.495 341.179 455.673 325.803 499.441 307.677C401.732 311.343 347.886 313.583 337.904 314.398L346.83 279.572C347.214 277.942 347.79 276.517 348.558 275.295C360.652 256.762 386.279 235.683 425.439 212.058C426.783 211.04 441.372 202.486 469.207 186.397C458.649 174.381 453.37 160.532 453.37 144.85C453.37 128.557 458.745 116.948 469.495 110.024C474.294 106.969 480.149 105.34 487.059 105.136C508.175 105.136 527.563 113.894 545.224 131.408C554.438 140.573 559.045 148.312 559.045 154.626C558.853 164.809 556.166 176.112 550.983 188.535L550.407 187.924V189.146C538.889 190.164 523.628 195.052 504.624 203.81C508.079 214.604 509.807 225.296 509.807 235.886V243.218C507.503 234.868 500.881 224.074 489.939 210.836C453.082 229.166 419.2 249.939 388.294 273.156C408.642 272.342 442.716 271.629 490.515 271.018C538.505 270.203 584 268.778 627 266.741L608.284 307.677H598.781C597.054 308.288 582.849 312.972 556.166 321.729C529.675 330.283 499.537 341.994 465.751 356.861C431.966 371.524 410.178 386.493 400.388 401.768C411.906 419.486 433.214 434.048 464.312 445.453C469.303 447.286 473.91 448.814 478.133 450.036H478.709L478.133 479.057V486.389L478.709 487C412.866 482.316 365.835 450.748 337.616 392.298C328.21 372.95 320.148 349.122 313.429 320.813C311.509 327.941 308.918 337.106 305.654 348.307ZM463.736 145.461C467.191 152.385 475.158 162.772 487.635 176.621C498.961 171.122 512.302 165.725 527.659 160.43C516.525 152.08 501.552 145.97 482.74 142.101C480.82 141.693 478.901 141.49 476.981 141.49C472.182 141.49 467.767 142.813 463.736 145.461Z" fill="white"/>
</g>
<defs>
<filter id="filter0_d_91_8" x="0" y="0" width="735" height="595" filterUnits="userSpaceOnUse" color-interpolation-filters="sRGB">
<feFlood flood-opacity="0" result="BackgroundImageFix"/>
<feColorMatrix in="SourceAlpha" type="matrix" values="0 0 0 0 0 0 0 0 0 0 0 0 0 0 0 0 0 0 127 0" result="hardAlpha"/>
<feOffset dx="8" dy="8"/>
<feGaussianBlur stdDeviation="50"/>
<feComposite in2="hardAlpha" operator="out"/>
<feColorMatrix type="matrix" values="0 0 0 0 1 0 0 0 0 1 0 0 0 0 1 0 0 0 0.25 0"/>
<feBlend mode="normal" in2="BackgroundImageFix" result="effect1_dropShadow_91_8"/>
<feBlend mode="normal" in="SourceGraphic" in2="effect1_dropShadow_91_8" result="shape"/>
</filter>
</defs>
</svg>
