<svg width="222" height="167" viewBox="0 0 222 167" fill="none" xmlns="http://www.w3.org/2000/svg">
<g filter="url(#filter0_d_91_8)">
<path d="M84.4609 93.9336L84.2656 94.6172C83.1589 97.9375 78.9271 103.471 71.5703 111.219C54.7734 128.797 40.418 137.586 28.5039 137.586C19.7799 137.586 14.5065 133.257 12.6836 124.598C12.2279 122.449 12 120.203 12 117.859C12.0651 110.633 13.7904 101.941 17.1758 91.7852C17.4362 91.0039 17.8268 90.5156 18.3477 90.3203C18.8034 90.125 19.0638 90.3203 19.1289 90.9062C19.1289 91.2969 18.6406 93.3477 17.6641 97.0586C16.4271 101.811 15.8411 106.401 15.9062 110.828C16.0365 117.794 18.8359 122.286 24.3047 124.305C26.1927 124.565 27.5273 124.663 28.3086 124.598C42.2409 124.598 59.3633 113.4 79.6758 91.0039C81.4987 88.9857 83.1914 87.0326 84.7539 85.1445C83.3867 69.7148 77.5924 50.2812 67.3711 26.8438L66.1992 24.6953L70.5938 12C70.6589 12.2604 70.8216 12.5534 71.082 12.8789C78.6992 24.3372 84.2331 38.0091 87.6836 53.8945C88.9206 59.4935 90.0273 65.5482 91.0039 72.0586C92.1107 79.6758 93.3802 85.6328 94.8125 89.9297C98.5234 101.583 105.066 110.503 114.441 116.688C114.441 116.557 114.214 115.776 113.758 114.344C113.367 112.977 113.172 111.577 113.172 110.145C113.172 104.546 115.613 99.7279 120.496 95.6914C125.444 91.6549 135.34 86.7396 150.184 80.9453C117.046 82.1172 98.7839 82.8333 95.3984 83.0938L98.4258 71.9609C98.556 71.4401 98.7513 70.9844 99.0117 70.5938C103.113 64.6693 111.805 57.931 125.086 50.3789C125.542 50.0534 130.49 47.319 139.93 42.1758C136.349 38.3346 134.559 33.9076 134.559 28.8945C134.559 23.6862 136.382 19.9753 140.027 17.7617C141.655 16.7852 143.641 16.2643 145.984 16.1992C153.146 16.1992 159.721 18.9987 165.711 24.5977C168.836 27.5273 170.398 30.0013 170.398 32.0195C170.333 35.2747 169.422 38.888 167.664 42.8594L167.469 42.6641V43.0547C163.562 43.3802 158.387 44.9427 151.941 47.7422C153.113 51.1927 153.699 54.6107 153.699 57.9961V60.3398C152.918 57.6706 150.672 54.2201 146.961 49.9883C134.461 55.8477 122.97 62.4883 112.488 69.9102C119.389 69.6497 130.945 69.4219 147.156 69.2266C163.432 68.9661 178.862 68.5104 193.445 67.8594L187.098 80.9453H183.875C183.289 81.1406 178.471 82.638 169.422 85.4375C160.438 88.1719 150.216 91.9154 138.758 96.668C127.299 101.355 119.91 106.141 116.59 111.023C120.496 116.688 127.723 121.342 138.27 124.988C139.962 125.574 141.525 126.062 142.957 126.453H143.152L142.957 135.73V138.074L143.152 138.27C120.822 136.772 104.871 126.681 95.3008 107.996C92.1107 101.811 89.3763 94.194 87.0977 85.1445C86.4466 87.4232 85.5677 90.3529 84.4609 93.9336ZM138.074 29.0898C139.246 31.3034 141.948 34.6237 146.18 39.0508C150.021 37.293 154.546 35.5677 159.754 33.875C155.978 31.2057 150.9 29.2526 144.52 28.0156C143.868 27.8854 143.217 27.8203 142.566 27.8203C140.939 27.8203 139.441 28.2435 138.074 29.0898Z" fill="white"/>
</g>
<defs>
<filter id="filter0_d_91_8" x="0" y="0" width="221.445" height="166.27" filterUnits="userSpaceOnUse" color-interpolation-filters="sRGB">
<feFlood flood-opacity="0" result="BackgroundImageFix"/>
<feColorMatrix in="SourceAlpha" type="matrix" values="0 0 0 0 0 0 0 0 0 0 0 0 0 0 0 0 0 0 127 0" result="hardAlpha"/>
<feOffset dx="8" dy="8"/>
<feGaussianBlur stdDeviation="10"/>
<feComposite in2="hardAlpha" operator="out"/>
<feColorMatrix type="matrix" values="0 0 0 0 1 0 0 0 0 1 0 0 0 0 1 0 0 0 0.25 0"/>
<feBlend mode="normal" in2="BackgroundImageFix" result="effect1_dropShadow_91_8"/>
<feBlend mode="normal" in="SourceGraphic" in2="effect1_dropShadow_91_8" result="shape"/>
</filter>
</defs>
</svg>
