<svg xmlns="http://www.w3.org/2000/svg" width="157" height="121" fill="none" viewBox="0 0 157 121"><g filter="url(#a)"><path fill="#fff" d="m62.375 68.438-.125.437q-1.062 3.188-8.125 10.625Q38 96.375 26.563 96.375q-8.376 0-10.125-8.312A20.7 20.7 0 0 1 16 83.75q.063-6.937 3.313-16.687.249-.75.75-.938.437-.187.5.375 0 .375-.938 3.938Q18.437 75 18.5 79.25q.125 6.687 5.375 8.625 1.812.25 2.563.188 13.374 0 32.875-21.5a115 115 0 0 0 3.25-3.75Q61.25 48 51.437 25.5l-.75-1.375L53.5 16q.063.25.313.563 7.312 11 10.624 26.25 1.188 5.375 2.126 11.624Q67.625 61.752 69 65.876 72.563 77.063 81.563 83q0-.124-.438-1.5a9.7 9.7 0 0 1-.375-2.687q0-5.376 4.688-9.25 4.75-3.876 19-9.438Q72.625 61.25 69.375 61.5l-.25.75 2.188-7.875q.125-.5.374-.875 3.939-5.688 16.688-12.937.438-.314 9.5-5.25-3.437-3.688-3.437-8.5 0-5.001 3.5-7.125 1.562-.938 3.812-1 6.875 0 12.625 5.375 3 2.812 3 4.75-.063 3.124-1.75 6.937l-.125-.125v.25q-3.75.312-9.938 3 1.126 3.312 1.126 6.563v1.5q-.75-2.563-4.313-6.626-12 5.625-22.062 12.75 6.624-.25 22.187-.437 15.625-.25 29.625-.875l-4.063 8.375H126q-.562.187-9.25 2.875-8.625 2.625-19.625 7.188-11 4.5-14.187 9.187 3.75 5.437 13.874 8.938a47 47 0 0 0 3 .937h.126l-.126 5.938v1.5l.126.124Q78.5 95.376 69.312 77.439q-3.061-5.938-5.25-14.626a285 285 0 0 1-1.687 5.626m34.313-41.5q1.125 2.124 5.187 6.375 3.687-1.689 8.687-3.313-3.624-2.562-9.75-3.75a6.4 6.4 0 0 0-1.25-.125q-1.562 0-2.874.813"/></g><defs><filter id="a" width="156.125" height="120.812" x="0" y="0" color-interpolation-filters="sRGB" filterUnits="userSpaceOnUse"><feFlood flood-opacity="0" result="BackgroundImageFix"/><feColorMatrix in="SourceAlpha" result="hardAlpha" values="0 0 0 0 0 0 0 0 0 0 0 0 0 0 0 0 0 0 127 0"/><feOffset dx="4" dy="4"/><feGaussianBlur stdDeviation="10"/><feComposite in2="hardAlpha" operator="out"/><feColorMatrix values="0 0 0 0 1 0 0 0 0 1 0 0 0 0 1 0 0 0 0.3 0"/><feBlend in2="BackgroundImageFix" result="effect1_dropShadow_8_3"/><feBlend in="SourceGraphic" in2="effect1_dropShadow_8_3" result="shape"/></filter></defs></svg>