<svg width="66" height="46" viewBox="0 0 66 46" fill="none" xmlns="http://www.w3.org/2000/svg">
<path d="M26.0859 29.4961L26.0156 29.7422C25.7109 30.8203 24.1875 32.8125 21.4453 35.7188C15.3984 42.0469 10.2305 45.2109 5.94141 45.2109C2.80078 45.2109 0.902344 43.6523 0.246094 40.5352C0.0820312 39.7617 0 38.9531 0 38.1094C0.0234375 35.5078 0.644531 32.3789 1.86328 28.7227C1.95703 28.4414 2.0918 28.2656 2.26758 28.1953C2.44336 28.125 2.54297 28.1953 2.56641 28.4062C2.56641 28.5469 2.39062 29.2852 2.03906 30.6211C1.59375 32.332 1.38281 33.9844 1.40625 35.5781C1.45312 38.0859 2.46094 39.7031 4.42969 40.4297C5.10938 40.5234 5.58984 40.5586 5.87109 40.5352C10.8867 40.5352 17.0508 36.5039 24.3633 28.4414C25.0195 27.7148 25.6289 27.0117 26.1914 26.332C25.6992 20.7773 23.6133 13.7812 19.9336 5.34375L19.5117 4.57031L21.0938 0C21.1172 0.09375 21.1758 0.199219 21.2695 0.316406C24.0117 4.44141 26.0039 9.36328 27.2461 15.082C27.6914 17.0977 28.0898 19.2773 28.4414 21.6211C28.8398 24.3633 29.2969 26.5078 29.8125 28.0547C31.1484 32.25 33.5039 35.4609 36.8789 37.6875C36.8789 37.6406 36.8027 37.3652 36.6504 36.8613C36.498 36.3574 36.4219 35.8477 36.4219 35.332C36.4219 33.3164 37.3066 31.582 39.0762 30.1289C40.8457 28.6758 44.4023 26.9062 49.7461 24.8203C37.8164 25.2422 31.2422 25.5 30.0234 25.5938L31.1133 21.5859C31.1719 21.3867 31.2422 21.2227 31.3242 21.0938C31.8398 20.3438 34.9688 17.918 40.7109 13.8164C40.875 13.6992 42.6562 12.7148 46.0547 10.8633C44.7656 9.48047 44.1211 7.88672 44.1211 6.08203C44.1211 4.20703 44.7773 2.87109 46.0898 2.07422C46.6758 1.72266 47.3906 1.53516 48.2344 1.51172C50.8125 1.51172 53.1797 2.51953 55.3359 4.53516C56.4609 5.58984 57.0234 6.48047 57.0234 7.20703C57 8.37891 56.6719 9.67969 56.0391 11.1094L55.9688 11.0391V11.1797C54.5625 11.2969 52.6992 11.8594 50.3789 12.8672C50.8008 14.1094 51.0117 15.3398 51.0117 16.5586V17.4023C50.7305 16.4414 49.9219 15.1992 48.5859 13.6758C44.0859 15.7852 39.9492 18.1758 36.1758 20.8477C38.6602 20.7539 42.8262 20.666 48.6738 20.584C54.5215 20.502 60.0703 20.3438 65.3203 20.1094L63.0352 24.8203H61.875C61.6641 24.8906 59.9355 25.4238 56.6895 26.4199C53.4434 27.416 49.7578 28.7637 45.6328 30.4629C41.5078 32.1621 38.8477 33.8906 37.6523 35.6484C39.0586 37.6875 41.6602 39.3633 45.457 40.6758C46.0664 40.8867 46.6289 41.0625 47.1445 41.2031H47.2148L47.1445 44.543V45.3867L47.2148 45.457C39.1758 44.918 33.4336 41.2852 29.9883 34.5586C28.8398 32.332 27.8555 29.5898 27.0352 26.332C26.8008 27.1523 26.4844 28.207 26.0859 29.4961ZM45.3867 6.15234C45.8086 6.94922 46.7812 8.14453 48.3047 9.73828C49.6875 9.10547 51.3164 8.48438 53.1914 7.875C51.832 6.91406 50.0039 6.21094 47.707 5.76562C47.4727 5.71875 47.2383 5.69531 47.0039 5.69531C46.418 5.69531 45.8789 5.84766 45.3867 6.15234Z" fill="white"/>
</svg>
